<svg id="bc704723-71cb-4e79-bebe-3b4ed330c72b" data-name="Layer 1" xmlns="http://www.w3.org/2000/svg" width="16" height="16" viewBox="0 0 16 16"><rect y="5.99" width="16" height="8" style="fill:#008e17"/><polygon points="4 8.99 3 8.99 3 7.99 2 7.99 2 6.99 1 6.99 1 12.99 2 12.99 2 9.99 3 9.99 3 10.99 4 10.99 4 12.99 5 12.99 5 6.99 4 6.99 4 8.99" style="fill:#fff"/><polygon points="6 6.99 6 12.99 7 12.99 9 12.99 9 11.99 7 11.99 7 9.99 9 9.99 9 8.99 7 8.99 7 7.99 9 7.99 9 6.99 7 6.99 6 6.99" style="fill:#fff"/><polygon points="14 6.99 14 11.99 13 11.99 13 7.99 12 7.99 12 11.99 11 11.99 11 6.99 10 6.99 10 11.99 10 12.99 11 12.99 12 12.99 13 12.99 14 12.99 15 12.99 15 11.99 15 6.99 14 6.99" style="fill:#fff"/></svg>