<svg id="b9bda108-8a46-4706-8aff-dc107a176669" data-name="Layer 1" xmlns="http://www.w3.org/2000/svg" width="16" height="16" viewBox="0 0 16 16"><path d="M14.1,5.78a3.49,3.49,0,0,0-1.71,2.9,3.41,3.41,0,0,0,2.1,3.14,8.42,8.42,0,0,1-1.64,2.86,2.87,2.87,0,0,1-1.94,1.22,3.65,3.65,0,0,1-1.16-.28l-.23-.09-.38-.15a2.86,2.86,0,0,0-.88-.13,3.52,3.52,0,0,0-1.12.22l-.29.11-.37.15a2.35,2.35,0,0,1-.86.17c-.93,0-1.85-.78-2.75-2.34A9.31,9.31,0,0,1,1.51,8.82,4.67,4.67,0,0,1,2.64,5.54a3.81,3.81,0,0,1,3-1.26,3.35,3.35,0,0,1,1.3.26l.28.11.29.12a1.66,1.66,0,0,0,.62.16,2,2,0,0,0,.68-.14l.39-.15.27-.1A4.35,4.35,0,0,1,11,4.28,3.81,3.81,0,0,1,14.1,5.78ZM11,.83c0,.18,0,.31,0,.4A3.16,3.16,0,0,1,10.1,3.5a3,3,0,0,1-2.19,1,2.82,2.82,0,0,1,0-.42,3,3,0,0,1,.88-2,3.41,3.41,0,0,1,2-1.14Z" style="fill:#333338"/></svg>