<svg id="af6b490b-2828-42af-a2cd-e7126fca1bce" data-name="Layer 1" xmlns="http://www.w3.org/2000/svg" xmlns:xlink="http://www.w3.org/1999/xlink" width="16" height="16" viewBox="0 0 16 16"><defs><linearGradient id="be85fb09-5c3b-4c59-9ec1-f4c7d37cfb0f" x1="3.17" y1="14.08" x2="12.82" y2="4.43" gradientUnits="userSpaceOnUse"><stop offset="0" stop-color="#fff"/><stop offset="0" stop-color="#bcbec0"/><stop offset="0.26" stop-color="#b9bbbd"/><stop offset="0.43" stop-color="#b1b2b4"/><stop offset="0.58" stop-color="#a2a3a5"/><stop offset="0.71" stop-color="#8d8e90"/><stop offset="0.84" stop-color="#727375"/><stop offset="0.95" stop-color="#525153"/><stop offset="1" stop-color="#414042"/></linearGradient></defs><path d="M13.45,9.26a2.28,2.28,0,0,1,1.29-2A6.86,6.86,0,0,0,14.19,6,2.21,2.21,0,0,1,12,5.25a2.12,2.12,0,0,1-.55-2.18,6.86,6.86,0,0,0-1.34-.55A2.54,2.54,0,0,1,8,3.81,2.54,2.54,0,0,1,5.88,2.52a6.86,6.86,0,0,0-1.34.55A2.12,2.12,0,0,1,4,5.25,2.21,2.21,0,0,1,1.81,6,6.86,6.86,0,0,0,1.26,7.3a2.28,2.28,0,0,1,1.29,2,2.54,2.54,0,0,1-1.29,2.12,6.86,6.86,0,0,0,.55,1.34A2.09,2.09,0,0,1,4,13.27a2.1,2.1,0,0,1,.55,2.17A6.89,6.89,0,0,0,5.88,16,2.55,2.55,0,0,1,8,14.7,2.55,2.55,0,0,1,10.12,16a6.89,6.89,0,0,0,1.34-.56A2.1,2.1,0,0,1,12,13.27a2.16,2.16,0,0,1,2.18-.71,6.86,6.86,0,0,0,.55-1.34A2.29,2.29,0,0,1,13.45,9.26ZM8,11.87a2.62,2.62,0,1,1,2.61-2.61A2.61,2.61,0,0,1,8,11.87Z" style="fill:url(#be85fb09-5c3b-4c59-9ec1-f4c7d37cfb0f)"/><path d="M5.77,2.81A2.77,2.77,0,0,0,8,4.06a2.77,2.77,0,0,0,2.23-1.25,7.89,7.89,0,0,1,.95.39,2.29,2.29,0,0,0,.65,2.22,2.53,2.53,0,0,0,1.82.86,2.71,2.71,0,0,0,.4,0,6.15,6.15,0,0,1,.4,1A2.48,2.48,0,0,0,13.2,9.26a2.48,2.48,0,0,0,1.25,2.07,7.1,7.1,0,0,1-.4.95,1.81,1.81,0,0,0-.4,0,2.56,2.56,0,0,0-1.82.85,2.31,2.31,0,0,0-.65,2.22,5.58,5.58,0,0,1-.95.39A2.8,2.8,0,0,0,8,14.45,2.8,2.8,0,0,0,5.77,15.7a5.58,5.58,0,0,1-.95-.39,2.31,2.31,0,0,0-.65-2.22,2.32,2.32,0,0,0-1.66-.71,3.64,3.64,0,0,0-.56,0,6.47,6.47,0,0,1-.4-.94A2.77,2.77,0,0,0,2.8,9.26,2.48,2.48,0,0,0,1.55,7.19a6.15,6.15,0,0,1,.4-1,2.71,2.71,0,0,0,.4,0,2.53,2.53,0,0,0,1.82-.86A2.29,2.29,0,0,0,4.82,3.2a7.89,7.89,0,0,1,.95-.39M8,12.12A2.87,2.87,0,1,0,5.14,9.26,2.86,2.86,0,0,0,8,12.12m2.12-9.6A2.54,2.54,0,0,1,8,3.81,2.54,2.54,0,0,1,5.88,2.52a6.86,6.86,0,0,0-1.34.55A2.12,2.12,0,0,1,4,5.25,2.32,2.32,0,0,1,2.35,6,2.67,2.67,0,0,1,1.81,6,6.86,6.86,0,0,0,1.26,7.3a2.28,2.28,0,0,1,1.29,2,2.54,2.54,0,0,1-1.29,2.12,6.86,6.86,0,0,0,.55,1.34,3,3,0,0,1,.7-.09A2,2,0,0,1,4,13.27a2.1,2.1,0,0,1,.55,2.17A6.89,6.89,0,0,0,5.88,16,2.55,2.55,0,0,1,8,14.7,2.55,2.55,0,0,1,10.12,16a6.89,6.89,0,0,0,1.34-.56A2.1,2.1,0,0,1,12,13.27a2.32,2.32,0,0,1,1.64-.78,2.11,2.11,0,0,1,.54.07,6.86,6.86,0,0,0,.55-1.34,2.29,2.29,0,0,1-1.29-2,2.28,2.28,0,0,1,1.29-2A6.86,6.86,0,0,0,14.19,6a2.67,2.67,0,0,1-.54.07A2.32,2.32,0,0,1,12,5.25a2.12,2.12,0,0,1-.55-2.18,6.86,6.86,0,0,0-1.34-.55ZM8,11.87a2.62,2.62,0,1,1,2.61-2.61A2.61,2.61,0,0,1,8,11.87Z" style="fill:#6b6b6b"/></svg>