<svg id="fbd274ba-bd78-4201-9b02-8f22e75dfb5e" data-name="Layer 1" xmlns="http://www.w3.org/2000/svg" width="16" height="16" viewBox="0 0 16 16"><g id="a099b122-356d-4871-8b17-c7f8a20f0e89" data-name="s97wDU.tif"><path d="M14.3,3.35q-1.52-1.5-3-3A.31.31,0,0,0,11,.22H3.15A1.42,1.42,0,0,0,1.7,1.3a2.22,2.22,0,0,0,0,.45q0,6.29,0,12.56a1.43,1.43,0,0,0,1.08,1.48l.19.05H13.16a1.8,1.8,0,0,0,.7-.29,1.47,1.47,0,0,0,.57-1.24V3.66A.4.4,0,0,0,14.3,3.35Zm-8,9.29V13.7H3.64a.53.53,0,0,1-.46-.23.51.51,0,0,1,0-.61l.34-.51c.4-.6.8-1.21,1.23-1.84H3.08V9.46H5.65a.75.75,0,0,1,.26,0,.52.52,0,0,1,.3.71,1.62,1.62,0,0,1-.1.18l-1.4,2.1-.1.16Zm3.2-2.13H8.93v2.13h.52V13.7H7.35V12.64h.5V10.52H7.34V9.46H9.45ZM13,12a1.55,1.55,0,0,1-1.29.61h-.49V13.7H10.18V9.47c.61,0,1.2,0,1.78,0a1.44,1.44,0,0,1,1.28,1A1.5,1.5,0,0,1,13,12ZM10.18,4.47V1l3.5,3.5Z"/><path d="M11.9,10.54a4.84,4.84,0,0,0-.66,0v1h.6a.53.53,0,0,0,.06-1Z"/></g></svg>