<svg id="b3ad56a9-2662-43d6-a8d8-6abc2e3e11bf" data-name="Layer 1" xmlns="http://www.w3.org/2000/svg" width="16" height="16" viewBox="0 0 16 16"><polygon points="6.41 5.21 6.45 6.12 5.81 7.3 4.83 9.24 4.63 10.85 5.34 13.14 6.96 14.05 9.4 14.05 11.69 12.31 12.71 9.59 10.35 6.71 9.68 5.1 6.41 5.21" style="fill:#eceff1"/><path d="M12,7.46a6.73,6.73,0,0,1-1.42-2.6c-.28-1.14.07-.83-.16-1.81A3.26,3.26,0,0,0,9.92,1.9a1.56,1.56,0,0,0-.68-.47,2.22,2.22,0,0,0-2.2,0C6,2,6.09,3.2,6.29,5.61a1.19,1.19,0,0,1-.12.51,4.06,4.06,0,0,1-.67,1,7.69,7.69,0,0,0-.75,1.22A5.32,5.32,0,0,0,4,10.78,31.24,31.24,0,0,1,6.64,14.6a12.26,12.26,0,0,1,1.42,0,6.3,6.3,0,0,1,2,.08c0-.12,0-.24,0-.36a5,5,0,0,1,.08-.71c0-.19.08-.39.12-.63a3.88,3.88,0,0,1-1.77.87,2.31,2.31,0,0,1-2-.67.21.21,0,0,0,.15,0c.12,0,.24-.08.28-.16a.46.46,0,0,0,0-.51c-.08-.12-.67-.55-1-.79s-.43-.35-.59-.51l-.31-.32a1.79,1.79,0,0,1-.16-.19,1.46,1.46,0,0,1-.08-.75,3.29,3.29,0,0,1,.39-1.18c.08-.16.28-.48.28-.48S4.67,9.87,5,10.38a4.81,4.81,0,0,1,.19-1,4.07,4.07,0,0,1,.55-1.15,4.55,4.55,0,0,0,.87-1.93c0-.28,0-.55,0-.75-.16-.16,2.6-.55,2.76-.12,0,.16.59,1.58.91,2.33a8.5,8.5,0,0,1,.47,1.06,6.46,6.46,0,0,1,.2,1.62,2.51,2.51,0,0,1,0,.51,1.89,1.89,0,0,0-.2-3,2,2,0,0,1,1.15,1.53,3,3,0,0,1-.4,1.62s.83.36.87.36a1.88,1.88,0,0,0,.47-.12,3.08,3.08,0,0,0,.16-.55C13.31,9.83,12.64,8.37,12,7.46Z" style="fill:#263238"/><ellipse cx="7" cy="4.07" rx="0.51" ry="0.79" style="fill:#eceff1"/><ellipse cx="8.77" cy="4.03" rx="0.67" ry="0.91" style="fill:#eceff1"/><ellipse cx="7.01" cy="4.16" rx="0.28" ry="0.47" transform="matrix(0.99, -0.13, 0.13, 0.99, -0.47, 0.91)" style="fill:#212121"/><ellipse cx="8.73" cy="4.19" rx="0.39" ry="0.51" style="fill:#212121"/><path d="M14,12.87a1.47,1.47,0,0,1-.67-.56c-.12-.19-.08-.75-.28-1a.26.26,0,0,0-.31-.08c-.36.08-1.19.63-1.74,0a.54.54,0,0,0-.39-.2.35.35,0,0,0-.36.24,1.34,1.34,0,0,0-.08.67,7.08,7.08,0,0,1,0,.94c-.08.67-.19,1.07-.19,1.46a1,1,0,0,0,.27.83,1,1,0,0,0,.75.2,1.32,1.32,0,0,0,1-.43,6.85,6.85,0,0,1,.9-.68c.44-.27,1.11-.63,1.23-.74s.19-.12.19-.36A.31.31,0,0,0,14,12.87Z" style="fill:#ffc107"/><path d="M6.05,13c-.39-.63-.43-.75-.71-1.14S4.59,10.7,4.28,10.7a.67.67,0,0,0-.52.27,3.8,3.8,0,0,1-.59.71c-.23.2-.9.16-1.06.4s.16.59.16,1.18c0,.24-.2.39-.24.55s-.08.32,0,.47.35.32,1.69.6c.71.15,1.38.55,1.82.59A1,1,0,0,0,6.72,14.4C6.76,13.77,6.41,13.61,6.05,13Z" style="fill:#ffc107"/><path d="M6.8,5.85c-.24-.16-.43-.32-.43-.56s.15-.31.39-.51a1.57,1.57,0,0,1,.91-.43,3.27,3.27,0,0,1,1.14.35c.36.08.71.16.67.44s-.08.47-.47.67-.79.51-1.15.51a2.59,2.59,0,0,1-.55,0A2.29,2.29,0,0,1,6.8,5.85Z" style="fill:#ffc107"/><path d="M6.72,5.53a.87.87,0,0,0,.32.2l.19.08h.36a1.62,1.62,0,0,0,.75-.24c.27-.12.31-.2.51-.28s.39-.23.32-.27S9,5,8.73,5.18a6.11,6.11,0,0,1-.67.35,1.46,1.46,0,0,1-.39.12H7.31A.89.89,0,0,1,7,5.57c-.08,0-.12-.08-.16-.08s-.24-.2-.32-.24-.07,0,0,0Z" style="fill:#634703"/><path d="M7.9,4.66c0,.08.12.08.16.12a.12.12,0,0,0,.08,0,.08.08,0,0,0,0-.12C8.1,4.62,7.9,4.62,7.9,4.66Z" style="fill:#634703"/><path d="M7.27,4.74s.08.08.08,0,.08-.08.12-.08,0-.08-.08-.08S7.31,4.7,7.27,4.74Z" style="fill:#634703"/><path d="M11.1,11.72v.12a.45.45,0,0,0,.43.2.78.78,0,0,0,.59-.32s0-.08.08-.12a1.92,1.92,0,0,1,.16-.23.14.14,0,0,1,0-.08.49.49,0,0,0-.31-.2,1.76,1.76,0,0,0-.4-.08.76.76,0,0,0-.67.2,0,0,0,0,1,0,0,.36.36,0,0,1,.12.27C11.14,11.6,11.1,11.64,11.1,11.72Z" style="fill:#455a64"/></svg>