<svg id="abf381b9-96d2-4208-aaf3-a40b0d3789d7" data-name="Layer 1" xmlns="http://www.w3.org/2000/svg" width="16" height="16" viewBox="0 0 16 16"><rect y="5.99" width="16" height="8" style="fill:#000793"/><polygon points="5 11.99 4 11.99 4 6.99 3 6.99 3 11.99 2 11.99 2 6.99 1 6.99 1 11.99 1 12.99 2 12.99 3 12.99 4 12.99 5 12.99 6 12.99 6 11.99 6 6.99 5 6.99 5 11.99" style="fill:#fff"/><polygon points="7 6.99 7 12.99 8 12.99 10 12.99 11 12.99 11 10.99 11 9.99 9 9.99 9 10.99 10 10.99 10 11.99 8 11.99 8 7.99 11 7.99 11 6.99 8 6.99 7 6.99" style="fill:#fff"/><polygon points="13 11.99 13 6.99 12 6.99 12 12.99 13 12.99 15 12.99 15 11.99 13 11.99" style="fill:#fff"/></svg>