<svg id="c75c68d8-e063-4715-a078-d6566cbc89e6" data-name="Layer 1" xmlns="http://www.w3.org/2000/svg" width="16" height="16" viewBox="0 0 16 16"><defs><style>.\35 873d6d1-e7b9-49e9-aa6d-884289c8e54b{fill:#333338;}</style></defs><title>icon</title><path class="5873d6d1-e7b9-49e9-aa6d-884289c8e54b" d="M14.1,5.78a3.5,3.5,0,0,0-1.71,2.91,3.41,3.41,0,0,0,2.11,3.14,8.51,8.51,0,0,1-1.64,2.86,2.87,2.87,0,0,1-1.94,1.22,3.53,3.53,0,0,1-1.16-.28l-.23-.09-.38-.15a2.63,2.63,0,0,0-.88-.13,3.32,3.32,0,0,0-1.12.22l-.29.11-.37.15a2.39,2.39,0,0,1-.86.16q-1.39,0-2.75-2.34A9.33,9.33,0,0,1,1.51,8.82,4.71,4.71,0,0,1,2.64,5.54a3.83,3.83,0,0,1,3-1.25,3.38,3.38,0,0,1,1.3.25l.28.11.29.12a1.76,1.76,0,0,0,.62.15,2,2,0,0,0,.68-.14l.38-.15.28-.11A4.37,4.37,0,0,1,11,4.28,3.8,3.8,0,0,1,14.1,5.78ZM11,.83q0,.26,0,.4A3.16,3.16,0,0,1,10.1,3.5a3,3,0,0,1-2.19,1,4.12,4.12,0,0,1,0-.42A3,3,0,0,1,8.75,2a3.37,3.37,0,0,1,2-1.13Z"/></svg>