<svg id="e1367186-4ec0-4cfb-813c-42309f521e67" data-name="Layer 1" xmlns="http://www.w3.org/2000/svg" width="16" height="16" viewBox="0 0 16 16"><path d="M13.37,5.82a1,1,0,0,0-.95.95V10.6a1,1,0,1,0,1.9,0V6.77A.94.94,0,0,0,13.37,5.82Z" style="fill:#a4c639"/><path d="M2.63,5.82a.94.94,0,0,0-.95.95V10.6a.95.95,0,1,0,1.9,0V6.77A1,1,0,0,0,2.63,5.82Z" style="fill:#a4c639"/><path d="M12.11,5.7v0A3.74,3.74,0,0,0,10,2.4l.66-1.18a.2.2,0,0,0,0-.13A.16.16,0,0,0,10.63,1h0l-.08,0h0a.14.14,0,0,0-.1.07l-.66,1.2a4.32,4.32,0,0,0-3.5,0l-.66-1.2A.14.14,0,0,0,5.49,1h0L5.37,1h0a.16.16,0,0,0-.07.09.2.2,0,0,0,0,.13L6,2.4A3.74,3.74,0,0,0,3.89,5.68v0ZM9.9,3.51a.32.32,0,0,1,.31.32.32.32,0,0,1-.63,0A.32.32,0,0,1,9.9,3.51Zm-3.8,0a.32.32,0,0,1,.32.32.32.32,0,0,1-.63,0A.32.32,0,0,1,6.1,3.51Z" style="fill:#a4c639"/><path d="M3.89,6v6a1,1,0,0,0,1,1h.64v2a.95.95,0,1,0,1.89,0V13H8.59v2a.95.95,0,1,0,1.89,0V13h.64a1,1,0,0,0,1-1V6Z" style="fill:#a4c639"/></svg>