<svg id="b00a7770-f41d-4b01-a813-0b4d31cab69d" data-name="Layer 1" xmlns="http://www.w3.org/2000/svg" width="16" height="16" viewBox="0 0 16 16"><path d="M9.9,8.4c0,.11,0,.19-.05.28a.88.88,0,0,0,.3.79,1.07,1.07,0,0,0,1.59-.29L11.8,9l-.49-.16c0,.35-.11.5-.33.56a.47.47,0,0,1-.45-.82Zm2.71-5.3h.57a2.43,2.43,0,0,1,1.28.56,2.94,2.94,0,0,1,.91,1.68c0,.15,0,.3.06.46v.42a.43.43,0,0,1,0,0,4.8,4.8,0,0,1-.19,1.07,10.81,10.81,0,0,1-1.49,3c-.29.42-.6.82-.88,1.25a4.14,4.14,0,0,0-.65,2.85l.06.47H11.5a.19.19,0,0,0-.08,0h-.81a.13.13,0,0,1-.12,0c-.24-.27-.48-.55-.73-.8a3.73,3.73,0,0,0-1.1-.78,1.51,1.51,0,0,0-.91-.15,1.34,1.34,0,0,0-.86.6,3.74,3.74,0,0,0-.51,1.09c0,.06,0,.08-.1.08H5.09c-.06,0-.07,0-.08-.07s-.09-.41-.16-.61a1.37,1.37,0,0,0-.48-.68.74.74,0,0,0-.86,0,1.19,1.19,0,0,0-.38.36,2.64,2.64,0,0,0-.41,1c0,.06,0,.08-.1.08H1a.24.24,0,0,1,0-.08c0-.36-.08-.73-.09-1.09a9.65,9.65,0,0,1,.1-2,6.62,6.62,0,0,1,.57-1.85A3.64,3.64,0,0,1,3.16,8.16L3.52,8s0,.05,0,.06a10.46,10.46,0,0,0,.71,1.37,1.27,1.27,0,0,0,1.1.63,1.46,1.46,0,0,0,.83-.29,4,4,0,0,0,1-1.09v0l-.3.27a3.6,3.6,0,0,1-1.05.69,1.3,1.3,0,0,1-.58.11.92.92,0,0,1-.72-.48,14.73,14.73,0,0,1-.81-1.46,5.11,5.11,0,0,1-.22-.48.62.62,0,0,1,.19-.7,2.57,2.57,0,0,1,.41-.26,6.65,6.65,0,0,1,1.16-.41,6.58,6.58,0,0,1,2.46-.15,5.87,5.87,0,0,1,2.35.9c.25.16.49.34.75.48a2.21,2.21,0,0,0,1.44.29,2.16,2.16,0,0,0,1.76-1.51,1.28,1.28,0,0,0-.26-1.34,1.26,1.26,0,0,0-1.52-.24l-.19.09a.22.22,0,0,1-.29-.11q-.13-.25-.24-.51a.25.25,0,0,1,0-.17.55.55,0,0,1,.13-.18,1.27,1.27,0,0,1,.55-.29A3.58,3.58,0,0,1,12.61,3.1Z" style="fill:#282828"/></svg>